<?xml version="1.0" encoding="iso-8859-1"?>
<!-- Generator: Adobe Illustrator 19.1.0, SVG Export Plug-In . SVG Version: 6.00 Build 0)  -->
<svg version="1.1" id="Capa_1" xmlns="http://www.w3.org/2000/svg" xmlns:xlink="http://www.w3.org/1999/xlink" x="0px" y="0px"
	 viewBox="0 0 470 470" style="enable-background:new 0 0 470 470;" xml:space="preserve">
<g>
	<path style="fill:#F6E3DE;" d="M148.887,242.769c51.767,0,93.883-42.117,93.883-93.886C242.77,97.115,200.654,55,148.887,55
		c-51.77,0-93.888,42.115-93.888,93.882C54.999,200.651,97.117,242.769,148.887,242.769z M187.671,120.924
		c6.341,0,11.5,5.158,11.5,11.499c0,6.342-5.159,11.501-11.5,11.501c-6.341,0-11.5-5.159-11.5-11.501
		C176.171,126.082,181.33,120.924,187.671,120.924z M131.782,165.19c3.558-2.122,8.162-0.959,10.284,2.598
		c1.356,2.273,3.969,3.685,6.82,3.685c2.853,0,5.464-1.409,6.813-3.677c2.118-3.559,6.72-4.729,10.281-2.61
		c3.56,2.118,4.728,6.721,2.61,10.281c-4.04,6.789-11.59,11.006-19.704,11.006c-8.105,0-15.654-4.215-19.702-10.999
		C127.062,171.917,128.225,167.313,131.782,165.19z M110.1,120.924c6.341,0,11.5,5.158,11.5,11.499
		c0,6.342-5.159,11.501-11.5,11.501s-11.5-5.159-11.5-11.501C98.6,126.082,103.758,120.924,110.1,120.924z"/>
	<path style="fill:#A2839A;" d="M223.026,386.71c2.038,3.606,0.766,8.182-2.84,10.22c-14.772,8.347-30.412,14.89-46.68,19.562
		c38.812,21.649,82.678,35.102,129.183,37.921c69.554-66.325,93.754-170.103,60.733-260.327
		c-10.755-3.591-22.114-5.847-33.879-6.582c3.344,35.643-2.116,71.569-15.955,104.437c-14.535,34.522-37.88,64.88-67.514,87.792
		c-1.365,1.056-2.98,1.567-4.582,1.567c-2.243,0-4.461-1.001-5.938-2.913c-0.025-0.033-0.045-0.068-0.07-0.101
		c-4.063,2.915-8.24,5.689-12.524,8.318C222.981,386.641,223.006,386.674,223.026,386.71z"/>
	<path style="fill:#D7B0CD;" d="M155.391,405.563c20.189-4.275,39.488-11.562,57.416-21.693c3.57-2.018,8.085-0.788,10.153,2.735
		c4.284-2.629,8.462-5.403,12.524-8.318c-2.447-3.272-1.828-7.912,1.416-10.42c55.412-42.844,84.756-111.835,77.484-181.24
		c-17.944-3.193-31.615-18.896-31.615-37.743C282.769,75.06,222.708,15,148.884,15S15,75.06,15,148.884
		c0,1.158,0.015,2.312,0.044,3.464c0.001,0.035,0.001,0.069,0.002,0.104C16.258,257.865,72.15,351.339,155.391,405.563z
		 M39.999,148.882C39.999,88.844,88.846,40,148.887,40c60.038,0,108.883,48.844,108.883,108.882
		c0,60.04-48.845,108.886-108.883,108.886C88.846,257.769,39.999,208.922,39.999,148.882z"/>
	<path style="fill:#D5E6DA;" d="M455,321.116c0-51.972-29.767-97.12-73.147-119.296c13.479,43.727,15.09,90.072,4.544,135.073
		c-10.447,44.582-32.149,85.063-63.135,118.08C396.099,453.821,455,394.222,455,321.116z"/>
	<path style="fill:#3E2C3A;" d="M148.886,186.473c8.114,0,15.664-4.217,19.704-11.006c2.118-3.56,0.95-8.163-2.61-10.281
		c-3.561-2.119-8.163-0.949-10.281,2.61c-1.35,2.268-3.96,3.677-6.813,3.677c-2.851,0-5.464-1.412-6.82-3.685
		c-2.122-3.557-6.726-4.72-10.284-2.598c-3.557,2.123-4.72,6.727-2.598,10.284C133.232,182.258,140.781,186.473,148.886,186.473z"/>
	<path style="fill:#3E2C3A;" d="M257.77,148.882C257.77,88.844,208.925,40,148.887,40C88.846,40,39.999,88.844,39.999,148.882
		c0,60.04,48.847,108.886,108.888,108.886C208.925,257.769,257.77,208.922,257.77,148.882z M148.887,55
		c51.767,0,93.883,42.115,93.883,93.882c0,51.769-42.116,93.886-93.883,93.886c-51.77,0-93.888-42.117-93.888-93.886
		C54.999,97.115,97.117,55,148.887,55z"/>
	<path style="fill:#3E2C3A;" d="M110.1,143.924c6.341,0,11.5-5.159,11.5-11.501c0-6.341-5.159-11.499-11.5-11.499
		s-11.5,5.158-11.5,11.499C98.6,138.765,103.758,143.924,110.1,143.924z"/>
	<path style="fill:#3E2C3A;" d="M187.671,143.924c6.341,0,11.5-5.159,11.5-11.501c0-6.341-5.159-11.499-11.5-11.499
		c-6.341,0-11.5,5.158-11.5,11.499C176.171,138.765,181.33,143.924,187.671,143.924z"/>
	<path style="fill:#3E2C3A;" d="M372.339,181.313c-0.397-0.183-0.811-0.327-1.235-0.438c-15.632-5.589-32.459-8.643-49.988-8.643
		c-12.874,0-23.347-10.474-23.347-23.347C297.769,66.789,230.979,0,148.884,0S0,66.789,0,148.884c0,1.268,0.016,2.531,0.047,3.791
		c0.98,84.188,34.406,163.434,94.125,223.152c56.706,56.707,131.024,89.684,210.457,93.708c0.287,0.033,0.574,0.054,0.863,0.054
		c0.046,0,0.092-0.005,0.138-0.006c3.888,0.185,7.784,0.324,11.695,0.37c1.26,0.031,2.523,0.047,3.791,0.047
		C403.211,470,470,403.211,470,321.116C470,257.011,429.275,202.24,372.339,181.313z M15.044,152.348
		c-0.029-1.151-0.044-2.306-0.044-3.464C15,75.06,75.06,15,148.884,15s133.884,60.06,133.884,133.884
		c0,18.847,13.671,34.551,31.615,37.743c7.273,69.405-22.072,138.396-77.484,181.24c-3.244,2.508-3.862,7.148-1.416,10.42
		c0.025,0.033,0.045,0.068,0.07,0.101c1.478,1.912,3.696,2.913,5.938,2.913c1.602,0,3.217-0.511,4.582-1.567
		c29.634-22.912,52.979-53.27,67.514-87.792c13.839-32.868,19.299-68.794,15.955-104.437c11.765,0.735,23.124,2.991,33.879,6.582
		c33.021,90.223,8.822,194.002-60.733,260.327c-46.505-2.819-90.371-16.272-129.183-37.921c16.268-4.673,31.908-11.215,46.68-19.562
		c3.606-2.038,4.877-6.613,2.84-10.22c-0.021-0.036-0.045-0.069-0.066-0.105c-2.069-3.523-6.584-4.753-10.153-2.735
		c-17.928,10.131-37.227,17.418-57.416,21.693C72.15,351.339,16.258,257.865,15.046,152.452
		C15.045,152.417,15.045,152.383,15.044,152.348z M386.397,336.893c10.545-45.001,8.934-91.345-4.544-135.073
		C425.233,223.995,455,269.144,455,321.116c0,73.107-58.901,132.705-131.738,133.857
		C354.248,421.955,375.95,381.474,386.397,336.893z"/>
</g>
<g>
</g>
<g>
</g>
<g>
</g>
<g>
</g>
<g>
</g>
<g>
</g>
<g>
</g>
<g>
</g>
<g>
</g>
<g>
</g>
<g>
</g>
<g>
</g>
<g>
</g>
<g>
</g>
<g>
</g>
</svg>
