<?xml version="1.0" encoding="iso-8859-1"?>
<!-- Generator: Adobe Illustrator 19.0.0, SVG Export Plug-In . SVG Version: 6.00 Build 0)  -->
<svg version="1.1" id="Layer_1" xmlns="http://www.w3.org/2000/svg" xmlns:xlink="http://www.w3.org/1999/xlink" x="0px" y="0px"
	 viewBox="0 0 512 512" style="enable-background:new 0 0 512 512;" xml:space="preserve">
<path style="fill:#CFF09E;" d="M405.977,106.026l-1.698,124.171L472.082,298c8.239,8.239,22.329,2.434,22.373-9.216l1.045-272.28
	l-272.28,1.045c-11.652,0.045-17.456,14.134-9.216,22.373l67.803,67.803L405.977,106.026z"/>
<g>
	<path style="fill:#507C5C;" d="M507.168,4.833C504.073,1.738,499.874,0,495.5,0c-0.021,0-0.041,0-0.063,0l-272.28,1.046
		c-11.994,0.046-22.693,7.241-27.263,18.329c-4.569,11.089-2.04,23.735,6.439,32.213l58.614,58.614l-32.642,32.642
		c-6.444,6.444-6.444,16.893,0,23.337c3.223,3.223,7.446,4.833,11.668,4.833s8.446-1.612,11.668-4.833l42.121-42.121l95.478-1.305
		l-1.307,95.479l-42.119,42.119c-6.444,6.444-6.444,16.893,0,23.339c3.223,3.223,7.446,4.833,11.668,4.833
		c4.223,0,8.446-1.611,11.668-4.833l32.641-32.641l58.616,58.614c5.607,5.609,13.01,8.698,20.842,8.698
		c16.315,0,29.639-13.243,29.702-29.52l1.045-272.28C512.018,12.167,510.279,7.942,507.168,4.833z M477.986,280.565l-57.111-57.111
		l1.604-117.204c0.061-4.454-1.683-8.744-4.832-11.895c-3.15-3.15-7.497-4.908-11.895-4.832l-117.204,1.602l-57.108-57.109
		l247.496-0.951L477.986,280.565z"/>
	<path style="fill:#507C5C;" d="M173.375,355.13c-4.224,0-8.446-1.611-11.668-4.833c-6.444-6.444-6.444-16.893,0-23.339
		l165.256-165.256c6.446-6.444,16.891-6.444,23.339,0c6.444,6.444,6.444,16.893,0,23.339L185.043,350.297
		C181.82,353.518,177.599,355.13,173.375,355.13z"/>
</g>
<path style="fill:#CFF09E;" d="M106.029,405.974l1.698-124.171L39.924,214c-8.239-8.239-22.329-2.434-22.373,9.216l-1.045,272.28
	l272.28-1.045c11.652-0.045,17.456-14.134,9.216-22.373L230.2,404.276L106.029,405.974z"/>
<path style="fill:#507C5C;" d="M309.671,460.41l-58.614-58.614l32.642-32.642c6.444-6.444,6.444-16.893,0-23.337
	c-6.444-6.444-16.89-6.444-23.339,0l-42.121,42.121l-95.478,1.305l1.307-95.479l42.119-42.119c6.444-6.444,6.444-16.893,0-23.339
	c-6.446-6.444-16.891-6.444-23.339,0l-32.641,32.641l-58.616-58.614c-5.607-5.609-13.01-8.698-20.842-8.698
	c-16.315,0-29.639,13.243-29.702,29.52l-1.046,272.28c-0.017,4.399,1.723,8.622,4.833,11.733C7.932,510.261,12.13,512,16.505,512
	c0.021,0,0.041,0,0.063,0l272.28-1.046c11.994-0.046,22.693-7.241,27.263-18.329C320.68,481.534,318.15,468.891,309.671,460.41z
	 M33.071,478.932l0.951-247.497l57.109,57.111L89.527,405.75c-0.061,4.454,1.683,8.744,4.832,11.895
	c3.15,3.15,7.459,4.845,11.895,4.832l117.204-1.602l57.108,57.109L33.071,478.932z"/>
<g>
</g>
<g>
</g>
<g>
</g>
<g>
</g>
<g>
</g>
<g>
</g>
<g>
</g>
<g>
</g>
<g>
</g>
<g>
</g>
<g>
</g>
<g>
</g>
<g>
</g>
<g>
</g>
<g>
</g>
</svg>
