<?xml version="1.0" encoding="iso-8859-1"?>
<!-- Generator: Adobe Illustrator 19.0.0, SVG Export Plug-In . SVG Version: 6.00 Build 0)  -->
<svg version="1.1" id="Layer_1" xmlns="http://www.w3.org/2000/svg" xmlns:xlink="http://www.w3.org/1999/xlink" x="0px" y="0px"
	 viewBox="0 0 511.997 511.997" style="enable-background:new 0 0 511.997 511.997;" xml:space="preserve">
<path style="fill:#E9E9E9;" d="M395.553,236.517l73.202-39.654c45.348-75.708,57.507-145.262,24.578-178.19
	c-46.789-46.79-167.493-2.608-274.779,98.607l-23.504,77.87l-40.411-7.932c-74.114,94.799-61.394,231.545-61.394,231.545
	s177.865-1.258,288.348-111.741c10.524-10.523,20.49-21.216,29.883-31.99L395.553,236.517z"/>
<path style="fill:#D4D4D4;" d="M395.553,236.517l73.202-39.654c45.348-75.708,57.507-145.262,24.578-178.19L93.245,418.763
	c0,0,177.865-1.258,288.348-111.741c10.524-10.523,20.49-21.216,29.883-31.99L395.553,236.517z"/>
<rect x="132.006" y="169.703" transform="matrix(-0.7071 -0.7071 0.7071 -0.7071 -3.0467 725.3347)" style="fill:#818181;" width="33.385" height="387.191"/>
<rect x="-38.936" y="360.987" transform="matrix(-0.7071 0.7071 -0.7071 -0.7071 525.1234 520.9998)" style="fill:#595959;" width="387.191" height="16.54"/>
<g>
</g>
<g>
</g>
<g>
</g>
<g>
</g>
<g>
</g>
<g>
</g>
<g>
</g>
<g>
</g>
<g>
</g>
<g>
</g>
<g>
</g>
<g>
</g>
<g>
</g>
<g>
</g>
<g>
</g>
</svg>
