<svg xmlns="http://www.w3.org/2000/svg" xmlns:xlink="http://www.w3.org/1999/xlink" width="500" zoomAndPan="magnify" viewBox="0 0 375 374.999991" height="500" preserveAspectRatio="xMidYMid meet" version="1.0"><defs><g/></defs><path fill="#c9e265" d="M 49.71875 119.289062 L 324.78125 119.289062 C 343.613281 119.289062 358.882812 134.582031 358.882812 153.445312 L 358.882812 221.753906 C 358.882812 240.617188 343.613281 255.910156 324.78125 255.910156 L 49.71875 255.910156 C 30.886719 255.910156 15.621094 240.617188 15.621094 221.753906 L 15.621094 153.445312 C 15.621094 134.582031 30.886719 119.289062 49.71875 119.289062 " fill-opacity="1" fill-rule="nonzero"/><g fill="#000000" fill-opacity="1"><g transform="translate(52.32659, 218.022511)"><g><path d="M 66.765625 -43.796875 C 66.765625 -39.941406 65.722656 -36.453125 63.640625 -33.328125 C 61.554688 -30.210938 58.523438 -27.921875 54.546875 -26.453125 L 68.59375 0 L 45.828125 0 L 34.625 -23.046875 L 27.09375 -23.046875 L 27.09375 0 L 6.796875 0 L 6.796875 -63.171875 L 45.453125 -63.171875 C 49.984375 -63.171875 53.851562 -62.296875 57.0625 -60.546875 C 60.28125 -58.804688 62.703125 -56.453125 64.328125 -53.484375 C 65.953125 -50.515625 66.765625 -47.285156 66.765625 -43.796875 Z M 46.09375 -42.96875 C 46.09375 -44.625 45.539062 -46.003906 44.4375 -47.109375 C 43.34375 -48.210938 42 -48.765625 40.40625 -48.765625 L 27.09375 -48.765625 L 27.09375 -37.09375 L 40.40625 -37.09375 C 42 -37.09375 43.34375 -37.660156 44.4375 -38.796875 C 45.539062 -39.929688 46.09375 -41.320312 46.09375 -42.96875 Z M 46.09375 -42.96875 "/></g></g></g><g fill="#000000" fill-opacity="1"><g transform="translate(123.768219, 218.022511)"><g><path d="M 6.796875 -63.171875 L 61.4375 -63.171875 L 61.4375 -48.03125 L 27.09375 -48.03125 L 27.09375 -39.296875 L 56.46875 -39.296875 L 56.46875 -24.796875 L 27.09375 -24.796875 L 27.09375 -15.15625 L 62.078125 -15.15625 L 62.078125 0 L 6.796875 0 Z M 6.796875 -63.171875 "/></g></g></g><g fill="#000000" fill-opacity="1"><g transform="translate(190.067505, 218.022511)"><g><path d="M 33.328125 -64.28125 C 41.410156 -64.28125 48.050781 -62.640625 53.25 -59.359375 C 58.457031 -56.085938 61.125 -51.238281 61.25 -44.8125 L 61.25 -43.703125 L 42.234375 -43.703125 L 42.234375 -44.078125 C 42.234375 -45.910156 41.5625 -47.4375 40.21875 -48.65625 C 38.875 -49.882812 36.820312 -50.5 34.0625 -50.5 C 31.375 -50.5 29.3125 -50.101562 27.875 -49.3125 C 26.4375 -48.519531 25.71875 -47.539062 25.71875 -46.375 C 25.71875 -44.71875 26.695312 -43.488281 28.65625 -42.6875 C 30.613281 -41.894531 33.765625 -41.070312 38.109375 -40.21875 C 43.191406 -39.175781 47.367188 -38.085938 50.640625 -36.953125 C 53.921875 -35.828125 56.785156 -33.976562 59.234375 -31.40625 C 61.679688 -28.832031 62.9375 -25.34375 63 -20.9375 C 63 -13.46875 60.472656 -7.925781 55.421875 -4.3125 C 50.367188 -0.695312 43.617188 1.109375 35.171875 1.109375 C 25.316406 1.109375 17.648438 -0.539062 12.171875 -3.84375 C 6.691406 -7.15625 3.953125 -13.003906 3.953125 -21.390625 L 23.140625 -21.390625 C 23.140625 -18.210938 23.960938 -16.085938 25.609375 -15.015625 C 27.265625 -13.941406 29.835938 -13.40625 33.328125 -13.40625 C 35.898438 -13.40625 38.023438 -13.679688 39.703125 -14.234375 C 41.390625 -14.785156 42.234375 -15.914062 42.234375 -17.625 C 42.234375 -19.15625 41.300781 -20.300781 39.4375 -21.0625 C 37.570312 -21.832031 34.523438 -22.648438 30.296875 -23.515625 C 25.160156 -24.609375 20.90625 -25.753906 17.53125 -26.953125 C 14.164062 -28.148438 11.226562 -30.125 8.71875 -32.875 C 6.207031 -35.625 4.953125 -39.359375 4.953125 -44.078125 C 4.953125 -50.992188 7.628906 -56.085938 12.984375 -59.359375 C 18.347656 -62.640625 25.128906 -64.28125 33.328125 -64.28125 Z M 33.328125 -64.28125 "/></g></g></g><g fill="#000000" fill-opacity="1"><g transform="translate(256.36679, 218.022511)"><g><path d="M 43.15625 -47.015625 L 43.15625 0 L 22.859375 0 L 22.859375 -47.015625 L 2.109375 -47.015625 L 2.109375 -63.171875 L 63.828125 -63.171875 L 63.828125 -47.015625 Z M 43.15625 -47.015625 "/></g></g></g><path fill="#c9e265" d="M 54.878906 94.382812 L 161.265625 94.382812 C 169.457031 94.382812 176.097656 101.042969 176.097656 109.257812 L 176.097656 139.007812 C 176.097656 147.226562 169.457031 153.882812 161.265625 153.882812 L 54.878906 153.882812 C 46.6875 153.882812 40.046875 147.226562 40.046875 139.007812 L 40.046875 109.257812 C 40.046875 101.042969 46.6875 94.382812 54.878906 94.382812 " fill-opacity="1" fill-rule="nonzero"/><g fill="#000000" fill-opacity="1"><g transform="translate(56.002064, 137.634394)"><g><path d="M 22.640625 0 L 11.078125 -13.359375 L 11.078125 0 L 2.953125 0 L 2.953125 -27.515625 L 10.6875 -27.515625 L 22.234375 -13.953125 L 22.234375 -27.515625 L 30.359375 -27.515625 L 30.359375 0 Z M 22.640625 0 "/></g></g></g><g fill="#000000" fill-opacity="1"><g transform="translate(89.318754, 137.634394)"><g><path d="M 13.3125 -21.59375 C 17.1875 -21.59375 20.140625 -20.6875 22.171875 -18.875 C 24.210938 -17.0625 25.234375 -14.289062 25.234375 -10.5625 L 25.234375 -9.203125 L 9.40625 -9.203125 C 9.40625 -7.679688 9.742188 -6.53125 10.421875 -5.75 C 11.097656 -4.976562 12.171875 -4.59375 13.640625 -4.59375 C 14.972656 -4.59375 15.953125 -4.875 16.578125 -5.4375 C 17.203125 -6 17.515625 -6.75 17.515625 -7.6875 L 25.234375 -7.6875 C 25.234375 -5.125 24.257812 -3.117188 22.3125 -1.671875 C 20.375 -0.234375 17.535156 0.484375 13.796875 0.484375 C 9.878906 0.484375 6.835938 -0.425781 4.671875 -2.25 C 2.515625 -4.082031 1.4375 -6.851562 1.4375 -10.5625 C 1.4375 -14.1875 2.488281 -16.929688 4.59375 -18.796875 C 6.707031 -20.660156 9.613281 -21.59375 13.3125 -21.59375 Z M 13.640625 -16.515625 C 11.128906 -16.515625 9.726562 -15.328125 9.4375 -12.953125 L 17.203125 -12.953125 C 17.203125 -14.046875 16.882812 -14.910156 16.25 -15.546875 C 15.625 -16.191406 14.753906 -16.515625 13.640625 -16.515625 Z M 13.640625 -16.515625 "/></g></g></g><g fill="#000000" fill-opacity="1"><g transform="translate(115.996098, 137.634394)"><g><path d="M 26.484375 0 L 17.203125 0 L 13.203125 -6.640625 L 13.046875 -6.640625 L 9 0 L 0.15625 0 L 8.28125 -11.203125 L 0.953125 -21.125 L 10.3125 -21.125 L 13.6875 -15.515625 L 13.84375 -15.515625 L 17.203125 -21.125 L 26 -21.125 L 18.5625 -11 Z M 26.484375 0 "/></g></g></g><g fill="#000000" fill-opacity="1"><g transform="translate(142.673441, 137.634394)"><g><path d="M 16.484375 -21.125 L 16.484375 -15.71875 L 12 -15.71875 L 12 -7.6875 C 12 -6.71875 12.15625 -6.015625 12.46875 -5.578125 C 12.789062 -5.140625 13.378906 -4.921875 14.234375 -4.921875 L 16.484375 -4.921875 L 16.484375 -0.234375 C 15.835938 -0.0234375 15.007812 0.144531 14 0.28125 C 12.988281 0.414062 12.109375 0.484375 11.359375 0.484375 C 9.015625 0.484375 7.207031 0.0546875 5.9375 -0.796875 C 4.675781 -1.648438 4.046875 -3.101562 4.046875 -5.15625 L 4.046875 -15.71875 L 1.078125 -15.71875 L 1.078125 -21.125 L 4.359375 -21.125 L 6.078125 -27.515625 L 12 -27.515625 L 12 -21.125 Z M 16.484375 -21.125 "/></g></g></g><path fill="#c9e265" d="M 73.121094 221.117188 L 322.132812 221.117188 C 330.351562 221.117188 337.015625 227.773438 337.015625 235.992188 L 337.015625 265.742188 C 337.015625 273.957031 330.351562 280.617188 322.132812 280.617188 L 73.121094 280.617188 C 64.902344 280.617188 58.238281 273.957031 58.238281 265.742188 L 58.238281 235.992188 C 58.238281 227.773438 64.902344 221.117188 73.121094 221.117188 " fill-opacity="1" fill-rule="nonzero"/><g fill="#000000" fill-opacity="1"><g transform="translate(74.246227, 264.365579)"><g><path d="M 2.953125 -27.515625 L 25.203125 -27.515625 L 25.203125 -20.921875 L 11.796875 -20.921875 L 11.796875 -16.203125 L 23.3125 -16.203125 L 23.3125 -9.875 L 11.796875 -9.875 L 11.796875 0 L 2.953125 0 Z M 2.953125 -27.515625 "/></g></g></g><g fill="#000000" fill-opacity="1"><g transform="translate(100.923571, 264.365579)"><g><path d="M 15.234375 -21.640625 C 15.847656 -21.640625 16.394531 -21.566406 16.875 -21.421875 C 17.351562 -21.273438 17.59375 -21.1875 17.59375 -21.15625 L 17.59375 -14.484375 L 15.046875 -14.484375 C 13.390625 -14.484375 12.191406 -14.054688 11.453125 -13.203125 C 10.722656 -12.347656 10.359375 -11.082031 10.359375 -9.40625 L 10.359375 0 L 2.40625 0 L 2.40625 -21.125 L 8.921875 -21.125 L 9.4375 -17.921875 C 9.914062 -19.148438 10.675781 -20.078125 11.71875 -20.703125 C 12.757812 -21.328125 13.929688 -21.640625 15.234375 -21.640625 Z M 15.234375 -21.640625 "/></g></g></g><g fill="#000000" fill-opacity="1"><g transform="translate(118.681802, 264.365579)"><g><path d="M 12.84375 -21.59375 C 16.070312 -21.59375 18.695312 -21.050781 20.71875 -19.96875 C 22.75 -18.894531 23.765625 -17.144531 23.765625 -14.71875 L 23.765625 -6.484375 C 23.765625 -6.023438 23.867188 -5.648438 24.078125 -5.359375 C 24.296875 -5.066406 24.617188 -4.921875 25.046875 -4.921875 L 26.484375 -4.921875 L 26.484375 -0.3125 C 26.398438 -0.257812 26.191406 -0.171875 25.859375 -0.046875 C 25.523438 0.0664062 25.050781 0.179688 24.4375 0.296875 C 23.820312 0.421875 23.113281 0.484375 22.3125 0.484375 C 20.769531 0.484375 19.5 0.25 18.5 -0.21875 C 17.5 -0.6875 16.8125 -1.332031 16.4375 -2.15625 C 15.425781 -1.351562 14.289062 -0.710938 13.03125 -0.234375 C 11.78125 0.242188 10.316406 0.484375 8.640625 0.484375 C 3.679688 0.484375 1.203125 -1.488281 1.203125 -5.4375 C 1.203125 -7.488281 1.753906 -9.054688 2.859375 -10.140625 C 3.960938 -11.222656 5.554688 -11.960938 7.640625 -12.359375 C 9.722656 -12.753906 12.441406 -12.953125 15.796875 -12.953125 L 15.796875 -14 C 15.796875 -14.820312 15.507812 -15.445312 14.9375 -15.875 C 14.363281 -16.300781 13.625 -16.515625 12.71875 -16.515625 C 11.894531 -16.515625 11.179688 -16.367188 10.578125 -16.078125 C 9.984375 -15.785156 9.6875 -15.320312 9.6875 -14.6875 L 9.6875 -14.515625 L 1.84375 -14.515625 C 1.8125 -14.648438 1.796875 -14.835938 1.796875 -15.078125 C 1.796875 -17.078125 2.75 -18.660156 4.65625 -19.828125 C 6.5625 -21.003906 9.289062 -21.59375 12.84375 -21.59375 Z M 15.796875 -9.203125 C 13.535156 -9.203125 11.863281 -8.953125 10.78125 -8.453125 C 9.695312 -7.960938 9.15625 -7.304688 9.15625 -6.484375 C 9.15625 -5.148438 10.0625 -4.484375 11.875 -4.484375 C 12.914062 -4.484375 13.828125 -4.757812 14.609375 -5.3125 C 15.398438 -5.875 15.796875 -6.570312 15.796875 -7.40625 Z M 15.796875 -9.203125 "/></g></g></g><g fill="#000000" fill-opacity="1"><g transform="translate(145.359145, 264.365579)"><g><path d="M 30.4375 -21.59375 C 32.84375 -21.59375 34.644531 -20.90625 35.84375 -19.53125 C 37.039062 -18.164062 37.640625 -16.21875 37.640625 -13.6875 L 37.640625 0 L 29.6875 0 L 29.6875 -12.71875 C 29.6875 -13.625 29.460938 -14.347656 29.015625 -14.890625 C 28.578125 -15.441406 27.957031 -15.71875 27.15625 -15.71875 C 26.226562 -15.71875 25.46875 -15.394531 24.875 -14.75 C 24.289062 -14.113281 24 -13.332031 24 -12.40625 L 24 0 L 16.046875 0 L 16.046875 -12.71875 C 16.046875 -13.625 15.820312 -14.347656 15.375 -14.890625 C 14.9375 -15.441406 14.316406 -15.71875 13.515625 -15.71875 C 12.585938 -15.71875 11.828125 -15.394531 11.234375 -14.75 C 10.648438 -14.113281 10.359375 -13.332031 10.359375 -12.40625 L 10.359375 0 L 2.40625 0 L 2.40625 -21.125 L 8.921875 -21.125 L 9.4375 -17.953125 C 10.238281 -19.078125 11.296875 -19.960938 12.609375 -20.609375 C 13.929688 -21.265625 15.328125 -21.59375 16.796875 -21.59375 C 19.972656 -21.59375 22.109375 -20.378906 23.203125 -17.953125 C 24.023438 -19.078125 25.082031 -19.960938 26.375 -20.609375 C 27.664062 -21.265625 29.019531 -21.59375 30.4375 -21.59375 Z M 30.4375 -21.59375 "/></g></g></g><g fill="#000000" fill-opacity="1"><g transform="translate(185.355168, 264.365579)"><g><path d="M 13.3125 -21.59375 C 17.1875 -21.59375 20.140625 -20.6875 22.171875 -18.875 C 24.210938 -17.0625 25.234375 -14.289062 25.234375 -10.5625 L 25.234375 -9.203125 L 9.40625 -9.203125 C 9.40625 -7.679688 9.742188 -6.53125 10.421875 -5.75 C 11.097656 -4.976562 12.171875 -4.59375 13.640625 -4.59375 C 14.972656 -4.59375 15.953125 -4.875 16.578125 -5.4375 C 17.203125 -6 17.515625 -6.75 17.515625 -7.6875 L 25.234375 -7.6875 C 25.234375 -5.125 24.257812 -3.117188 22.3125 -1.671875 C 20.375 -0.234375 17.535156 0.484375 13.796875 0.484375 C 9.878906 0.484375 6.835938 -0.425781 4.671875 -2.25 C 2.515625 -4.082031 1.4375 -6.851562 1.4375 -10.5625 C 1.4375 -14.1875 2.488281 -16.929688 4.59375 -18.796875 C 6.707031 -20.660156 9.613281 -21.59375 13.3125 -21.59375 Z M 13.640625 -16.515625 C 11.128906 -16.515625 9.726562 -15.328125 9.4375 -12.953125 L 17.203125 -12.953125 C 17.203125 -14.046875 16.882812 -14.910156 16.25 -15.546875 C 15.625 -16.191406 14.753906 -16.515625 13.640625 -16.515625 Z M 13.640625 -16.515625 "/></g></g></g><g fill="#000000" fill-opacity="1"><g transform="translate(212.032511, 264.365579)"><g><path d="M 22.234375 0 L 18.953125 -11.765625 L 18.796875 -11.765625 L 15.484375 0 L 7.71875 0 L 0 -21.125 L 8.5625 -21.125 L 11.765625 -8.640625 L 12.046875 -8.640625 L 15.359375 -21.125 L 23.28125 -21.125 L 26.484375 -8.640625 L 26.765625 -8.640625 L 30 -21.125 L 37.765625 -21.125 L 30 0 Z M 22.234375 0 "/></g></g></g><g fill="#000000" fill-opacity="1"><g transform="translate(249.788765, 264.365579)"><g><path d="M 13.3125 -21.59375 C 17.019531 -21.59375 19.929688 -20.648438 22.046875 -18.765625 C 24.171875 -16.890625 25.234375 -14.15625 25.234375 -10.5625 C 25.234375 -6.957031 24.171875 -4.210938 22.046875 -2.328125 C 19.929688 -0.453125 17.019531 0.484375 13.3125 0.484375 C 9.613281 0.484375 6.707031 -0.445312 4.59375 -2.3125 C 2.488281 -4.1875 1.4375 -6.9375 1.4375 -10.5625 C 1.4375 -14.1875 2.488281 -16.929688 4.59375 -18.796875 C 6.707031 -20.660156 9.613281 -21.59375 13.3125 -21.59375 Z M 13.3125 -16.203125 C 10.707031 -16.203125 9.40625 -14.695312 9.40625 -11.6875 L 9.40625 -9.40625 C 9.40625 -6.414062 10.707031 -4.921875 13.3125 -4.921875 C 15.957031 -4.921875 17.28125 -6.414062 17.28125 -9.40625 L 17.28125 -11.6875 C 17.28125 -14.695312 15.957031 -16.203125 13.3125 -16.203125 Z M 13.3125 -16.203125 "/></g></g></g><g fill="#000000" fill-opacity="1"><g transform="translate(276.466109, 264.365579)"><g><path d="M 15.234375 -21.640625 C 15.847656 -21.640625 16.394531 -21.566406 16.875 -21.421875 C 17.351562 -21.273438 17.59375 -21.1875 17.59375 -21.15625 L 17.59375 -14.484375 L 15.046875 -14.484375 C 13.390625 -14.484375 12.191406 -14.054688 11.453125 -13.203125 C 10.722656 -12.347656 10.359375 -11.082031 10.359375 -9.40625 L 10.359375 0 L 2.40625 0 L 2.40625 -21.125 L 8.921875 -21.125 L 9.4375 -17.921875 C 9.914062 -19.148438 10.675781 -20.078125 11.71875 -20.703125 C 12.757812 -21.328125 13.929688 -21.640625 15.234375 -21.640625 Z M 15.234375 -21.640625 "/></g></g></g><g fill="#000000" fill-opacity="1"><g transform="translate(294.22434, 264.365579)"><g><path d="M 17.125 -21.125 L 26.40625 -21.125 L 18.59375 -12.59375 L 26.59375 0 L 17.5625 0 L 13.125 -7.234375 L 10.359375 -4.5625 L 10.359375 0 L 2.40625 0 L 2.40625 -29.046875 L 10.359375 -29.046875 L 10.359375 -13.046875 Z M 17.125 -21.125 "/></g></g></g></svg>